<svg width="34" height="34" viewBox="0 0 34 34" fill="none" xmlns="http://www.w3.org/2000/svg">
<path fill-rule="evenodd" clip-rule="evenodd" d="M25.456 25.4558C23.2055 27.7063 20.1533 28.9706 16.9707 28.9706C13.7881 28.9706 10.7359 27.7063 8.48542 25.4558C6.23499 23.2054 4.9707 20.1532 4.9707 16.9706C4.9707 13.788 6.23499 10.7357 8.48542 8.48528C10.7359 6.23484 13.7881 4.97056 16.9707 4.97056C20.1533 4.97056 23.2055 6.23484 25.456 8.48528C27.7064 10.7357 28.9707 13.788 28.9707 16.9706C28.9707 20.1532 27.7064 23.2054 25.456 25.4558ZM21.7437 13.2583C21.8843 13.1176 21.9633 12.9268 21.9633 12.7279C21.9633 12.529 21.8843 12.3382 21.7437 12.1976C21.603 12.0569 21.4123 11.9779 21.2133 11.9779C21.0144 11.9779 20.8237 12.0569 20.683 12.1976L16.9707 15.9099L13.2584 12.1976C13.1177 12.0569 12.927 11.9779 12.7281 11.9779C12.5291 11.9779 12.3384 12.0569 12.1977 12.1976C12.0571 12.3382 11.9781 12.529 11.9781 12.7279C11.9781 12.9268 12.0571 13.1176 12.1977 13.2583L15.91 16.9706L12.1977 20.6829C12.0571 20.8235 11.9781 21.0143 11.9781 21.2132C11.9781 21.4121 12.0571 21.6029 12.1977 21.7435C12.3384 21.8842 12.5292 21.9632 12.7281 21.9632C12.927 21.9632 13.1177 21.8842 13.2584 21.7435L16.9707 18.0312L20.683 21.7435C20.8237 21.8842 21.0144 21.9632 21.2133 21.9632C21.4123 21.9632 21.603 21.8842 21.7437 21.7435C21.8843 21.6029 21.9633 21.4121 21.9633 21.2132C21.9633 21.0143 21.8843 20.8235 21.7437 20.6829L18.0314 16.9706L21.7437 13.2583Z" fill="#888888"/>
</svg>
