<svg width="22" height="22" viewBox="0 0 22 22" fill="none" xmlns="http://www.w3.org/2000/svg">
<path d="M19.4624 22H19.3186C2.69784 21.0438 0.337935 7.01462 0.0080565 2.73308C-0.0185239 2.40018 0.0208191 2.06531 0.123831 1.74766C0.226843 1.43 0.391499 1.1358 0.608366 0.881906C0.825232 0.628016 1.09005 0.419428 1.38763 0.268095C1.68522 0.116762 2.00974 0.0256569 2.34258 7.93346e-07H7.00317C7.34198 -0.000327314 7.67308 0.101124 7.95359 0.291215C8.23409 0.481305 8.45108 0.751275 8.57644 1.06615L9.86212 4.23077C9.98591 4.53839 10.0166 4.87561 9.95046 5.20054C9.8843 5.52547 9.72416 5.8238 9.48995 6.05846L7.68831 7.87769C7.96973 9.47756 8.73561 10.9523 9.88233 12.1025C11.0291 13.2527 12.5013 14.0227 14.0998 14.3085L15.9353 12.4892C16.1734 12.2575 16.4744 12.1011 16.8008 12.0394C17.1272 11.9777 17.4645 12.0135 17.7707 12.1423L20.9596 13.42C21.2696 13.5494 21.5341 13.7681 21.7194 14.0484C21.9047 14.3287 22.0023 14.6578 22 14.9938V19.4615C22 20.1348 21.7326 20.7804 21.2567 21.2565C20.7809 21.7326 20.1354 22 19.4624 22ZM2.54558 1.69231C2.32125 1.69231 2.10611 1.78146 1.94748 1.94014C1.78886 2.09883 1.69974 2.31405 1.69974 2.53846V2.60615C2.08883 7.61539 4.58406 19.4615 19.4117 20.3077C19.5228 20.3146 19.6342 20.2994 19.7394 20.2631C19.8447 20.2268 19.9418 20.1701 20.0251 20.0962C20.1084 20.0223 20.1763 19.9327 20.2249 19.8325C20.2735 19.7323 20.3018 19.6235 20.3083 19.5123V14.9938L17.1194 13.7162L14.6919 16.1277L14.2859 16.0769C6.92705 15.1546 5.92895 7.79308 5.92895 7.71692L5.8782 7.31077L8.28039 4.88231L7.01163 1.69231H2.54558Z" fill="white"/>
</svg>
