<svg width="30" height="27" viewBox="0 0 30 27" fill="none" xmlns="http://www.w3.org/2000/svg">
<path d="M27.779 0.00275909C27.4085 0.0297142 27.0449 0.116633 26.7022 0.260126H26.6976C26.3687 0.39054 24.8049 1.04838 22.4274 2.04554L13.9078 5.63367C7.79444 8.20734 1.78498 10.7418 1.78498 10.7418L1.85654 10.7141C1.85654 10.7141 1.44221 10.8503 1.00942 11.1469C0.742045 11.317 0.511968 11.5396 0.333112 11.8012C0.120755 12.1128 -0.0500533 12.5895 0.0134228 13.0823C0.117293 13.9156 0.657417 14.4153 1.0452 14.6911C1.4376 14.9704 1.81153 15.1008 1.81153 15.1008H1.82076L7.45629 16.9994C7.70904 17.8107 9.1736 22.6256 9.52561 23.7348C9.73335 24.3972 9.93532 24.8115 10.1881 25.1278C10.3104 25.2893 10.4535 25.4244 10.6255 25.5329C10.7149 25.5849 10.8102 25.6259 10.9094 25.6552L10.8517 25.6413C10.869 25.646 10.8828 25.6598 10.8955 25.6644C10.9417 25.6771 10.9729 25.6817 11.0317 25.691C11.9239 25.961 12.6406 25.4071 12.6406 25.4071L12.6809 25.3747L16.0083 22.3452L21.5849 26.6235L21.7119 26.6777C22.8741 27.1879 24.0513 26.9039 24.6733 26.4031C25.3 25.8987 25.5435 25.2536 25.5435 25.2536L25.5839 25.1497L29.8934 3.0727C30.0157 2.52795 30.0469 2.01784 29.9118 1.52272C29.7726 1.02164 29.4511 0.590672 29.0105 0.314369C28.6405 0.08945 28.2115 -0.019113 27.779 0.00275909ZM27.6625 2.36869C27.6578 2.4414 27.6717 2.43332 27.6394 2.57296V2.58566L23.3703 24.433C23.3519 24.4641 23.3207 24.5322 23.2353 24.6003C23.1453 24.6719 23.0737 24.7169 22.6986 24.568L15.8778 19.3387L11.7577 23.0942L12.6232 17.566L23.7673 7.17902C24.2267 6.752 24.0732 6.66198 24.0732 6.66198C24.1055 6.13801 23.3796 6.50848 23.3796 6.50848L9.3271 15.2139L9.32248 15.1909L2.58709 12.923V12.9184L2.56978 12.915C2.58159 12.911 2.59315 12.9064 2.6044 12.9011L2.64133 12.8826L2.67711 12.8699C2.67711 12.8699 8.69118 10.3355 14.8045 7.76185C17.8652 6.47271 20.949 5.17433 23.3207 4.17256C25.6924 3.17657 27.4455 2.44601 27.5447 2.40677C27.6394 2.36984 27.5944 2.36984 27.6625 2.36984V2.36869Z" fill="white"/>
</svg>
